<svg xmlns="http://www.w3.org/2000/svg" data-name="promise completed" viewBox="0 0 100 100" x="0px" y="0px"><title>Artboard 1</title><path d="M87.39,43.11c.74-4.49,2.32-8.82-3.4-9.78a14.79,14.79,0,0,0-9.59,2c-.85-1.1-1.77-2.19-3.3-1.52a7.38,7.38,0,0,0-3.26,2.68.78.78,0,0,0-.29-.24c-2.43-2-7.16-.8-7.41,2.59a6.75,6.75,0,0,0,.19,2c-2.06-.44-4.66.29-5.5,2.16l0,.09-.1-.33c1-2.36,3.19-5.47,1.48-8a3,3,0,0,0-3.76-.92c-1.71.67-2,2.29-3,3.61a6.62,6.62,0,0,0-1.85-.3c-1.67,0-2.8,1.81-3.27,3.22A3.46,3.46,0,0,0,44,42.65a5.82,5.82,0,0,0-4.33-.74,7.69,7.69,0,0,0,.21-1.56c.06-3.64-4.76-5.28-7.4-3.07a.78.78,0,0,0-.29.24,7.43,7.43,0,0,0-3.26-2.68c-1.53-.68-2.45.41-3.3,1.52a14.79,14.79,0,0,0-9.59-2c-5.72,1-4.14,5.29-3.4,9.78.6,3.67-1,7,.63,10.56,1.31,2.89,3.89,4.91,6.38,6.73,4.25,3.27,10.41,6.85,15.88,4.77,4.88-1.85,10.86-5.78,13.1-10.65,0,0,0,0,0-.06a.93.93,0,0,0,.09-.18A29,29,0,0,1,50.15,51c1.72,1.86,3.23,3.92,4.91,5.83,2.61,3,6.6,7.45,10.54,8.7,4.93,1.57,11.11-2.3,14.78-5.13,2.49-1.83,5.07-3.85,6.38-6.73C88.36,50.14,86.79,46.78,87.39,43.11ZM70.15,36.63c.31-.25,1.44-1.22,1.85-1.16s.75.56,1.11,1.09a4.38,4.38,0,0,0-1,2.14c-.45,3.19,2,3.67,4.49,3.71a1,1,0,0,0,0,.75c.58,1.29.94,4.82-.78,5.61-1.32.61-2.62-2.11-3.25-3.22a81.43,81.43,0,0,1-3.45-7.48C69.12,37.62,69.87,36.86,70.15,36.63Zm-6.9,1a3.14,3.14,0,0,1,3,.18c1.63,3.57,3.6,7.15,4.43,11,.1.47.47,1.52.28,1.95-.82,1.91-1.41.66-2.23.31-1.59-.67-2.7-2.6-3.53-4.13L65,46.54c-.78-1.45-1.48-3-2.12-4.5C62.4,40.85,62.06,38.63,63.26,37.66ZM57,43.46A3.53,3.53,0,0,1,60.59,43a1,1,0,0,0,.56.22c.55,1.23,1.21,2.42,1.73,3.47l.06.12a.92.92,0,0,0,0,.1l.36.65.12.21c.81,1.48,2.09,4,1.74,5.12-.69,2.23-4-.37-4.77-1.17a22,22,0,0,1-3-4.62C57,46.26,56.14,44.38,57,43.46Zm-4.7-7c.74-.93,2.23-1.19,2.46.23a5.37,5.37,0,0,1-.73,2.65c-.15.37-.32.73-.48,1.1a8.28,8.28,0,0,0-1-1.28L52.55,39,52.47,39l-.09-.06a.92.92,0,0,0-.12-.1c-.33-.18-.68-.37-1-.54A13.48,13.48,0,0,1,52.33,36.41ZM48,39.28a9,9,0,0,1,3.18,1.18A6.83,6.83,0,0,1,53,45.4c0,.49,0,.62-.38.76a3,3,0,0,1-1.4-.27,6.73,6.73,0,0,1-2-1c-.54-.52-1.17-1-1.74-1.44-.41-.34-.83-.68-1.21-1-.14-.13-.27-.26-.4-.4l.05-.06C46.56,41,46.33,39.13,48,39.28ZM39.41,44a3.53,3.53,0,0,1,3.56.43c.88.91.08,2.81-.38,3.66a22.61,22.61,0,0,1-3,4.62c-.73.79-4.09,3.36-4.77,1.17-.43-1.41,1.65-5,2.22-6,0,0,0,0,0-.07.59-1.11,1.26-2.34,1.81-3.61A1,1,0,0,0,39.41,44Zm-3-5.45c1.37.9,1.23,3.12.67,4.46s-1.23,2.79-1.93,4.14a13.39,13.39,0,0,1-3.67,4.74c-2,1.48-2.64-.16-2.23-2.07.83-3.86,2.8-7.44,4.43-11A2.64,2.64,0,0,1,36.43,38.58ZM28,36.46c.34-.06,1.36.8,1.64,1s1.25,1.06,1.17,1.59a79.39,79.39,0,0,1-3.45,7.48c-.51.89-1.71,3.51-2.84,3.51s-1.43-2.28-1.6-3.05a3.9,3.9,0,0,1,.41-2.85,1,1,0,0,0,0-.75c2.5,0,4.94-.52,4.49-3.71a4.38,4.38,0,0,0-.95-2.14C27.23,37,27.62,36.54,28,36.46Zm18.83,18.2c-2,4.13-6.63,7.07-10.63,9-5.45,2.66-11.16-.6-15.57-4-4.63-3.4-6.47-6.27-5.94-12,.23-2.5-2.19-9.78.31-11.21,2.08-1.19,6.07-.29,7.94.94,1.55,1,3.29,3.27,1.09,4-1.13.36-2.92-.08-4.14,0s-1.28,2.11,0,2a16.68,16.68,0,0,1,1.76,0,7.2,7.2,0,0,0,.1,6.28c.84,2,2.47,3,4.38,1.58a6.39,6.39,0,0,0,1.1-1c-.36,3.08.49,6.34,4.36,4a11.68,11.68,0,0,0,1.19-.83,3.49,3.49,0,0,0,.88,3c2.08,2,6.34-1.06,7.71-2.72,1.77-2.16,5-6.43,3.87-9.49.88.75,1.85,1.41,2.65,2.23a.93.93,0,0,0,.13.09l.08.07a8.26,8.26,0,0,0,1.54.89c-.36.61-.65,1.28-.93,1.87A31.52,31.52,0,0,0,46.82,54.66Zm38.58-3c-.82,3.1-3.59,5.27-6,7.06-3.84,3-9.74,6.77-14.51,4.23-3.15-1.68-6.06-4.81-8.39-7.48C54.62,53.33,53,51,51,49a5.93,5.93,0,0,1,.58-.94c1.31.23,2.55,0,3.09-1.21a3.74,3.74,0,0,0,.14-.38,21.08,21.08,0,0,0,3.79,6.17c1.37,1.67,5.48,4.6,7.61,2.8a3.37,3.37,0,0,0,1-3.09,11.63,11.63,0,0,0,1.19.83c3.79,2.27,4.75-.91,4.38-4a6.39,6.39,0,0,0,1.08,1c1.85,1.35,3.48.45,4.34-1.46a7.24,7.24,0,0,0,.15-6.39,16.69,16.69,0,0,1,1.76,0c1.27.12,1.26-1.87,0-2-2.22-.21-8.91.84-3.57-3.75,1.66-1.43,6.36-2.37,8.46-1.19,2.75,1.54.14,8.06.21,10.44C85.26,47.84,85.91,49.7,85.41,51.62Z"></path></svg>